<svg width="359" height="100" viewBox="0 0 359 100" fill="none" xmlns="http://www.w3.org/2000/svg"><path d="M25.26 0h307.564c6.699 0 13.125 2.628 17.861 7.305s7.398 11.02 7.398 17.635v49.879c0 6.618-2.662 12.958-7.398 17.64-4.736 4.675-11.162 7.304-17.861 7.304H25.259C11.31 99.763 0 88.596 0 74.819v-49.88C0 11.167 11.31 0 25.26 0" fill="#FFED00"/><path d="M52.687 57.76q.22 2.928-1.759 5.321-1.966 2.4-5.315 3.785-3.333 1.371-7.278 1.371-3.855 0-7.092-1.261c-2.148-.85-3.884-2.012-5.204-3.474q-1.964-2.208-1.963-4.992 0-2.392 1.74-4.077 1.758-1.681 4.112-1.683 2.424.001 4.167 1.683c1.157 1.124 1.74 2.482 1.74 4.077q0 2.03-.87 3.108a11.4 11.4 0 0 1-1.778 1.792q-.908.715-.907 1.682 0 .844.833 1.59.833.734 1.963.897l1.445.146q.681.074 1.814.073 2.056 0 3.5-1.426 1.445-1.423 1.445-3.437c0-1.253-.472-2.469-1.407-3.639q-1.409-1.755-3.575-3.51a137 137 0 0 0-4.63-3.639 69 69 0 0 1-4.629-3.858q-2.152-1.988-3.555-4.278-1.409-2.283-1.408-4.9 0-2.997 2.056-4.937 2.055-1.955 5-2.89 2.958-.931 5.778-.932 2.72.002 4.574.53 1.867.516 3.333.97a9.3 9.3 0 0 0 3.093.365 3.8 3.8 0 0 0 1.092-.292q.498-.217.796-.53h.37v12.14h-.37q-.464-2.247-1.518-5.01a14.6 14.6 0 0 0-3.148-4.955q-2.096-2.175-5.797-2.614c-1.324-.206-2.462.046-3.425.75-.954.694-1.482 1.842-1.593 3.437-.102 1.6.417 3.072 1.556 4.425q1.7 2.015 4.351 4.004a570 570 0 0 1 5.426 4.077q2.776 2.105 4.741 4.571 1.978 2.468 2.296 5.54" fill="#222"/><path d="M81.125 62.258c0 .905.301 1.7.908 2.395.601.695 1.338 1.125 2.203 1.28v.439l-13.055 1.865h-.148c-.362 0-.681-.137-.963-.402q-.409-.42-.408-.933V65.02c-.903.658-2.125 1.362-3.666 2.103q-2.32 1.116-5.5 1.115-3.576 0-6.463-1.865-2.873-1.864-3.704-5.01-.912-3.217.685-6.29 1.592-3.07 4.704-4.955 1.958-1.185 5-2.267a207 207 0 0 1 6.37-2.176 118 118 0 0 0 6.26-2.249c1.948-.777 3.541-1.627 4.777-2.541 1.232-.923 1.852-1.966 1.852-3.127 0-.996-.444-1.993-1.333-2.98q-1.319-1.494-3.13-2.413c-1.472-.695-3.093-1.161-4.87-1.408-1.769-.256-3.584-.229-5.445.073q-4.333.604-4.333 2.834c0 .905.278 1.682.833 2.34.556.65 1.098 1.33 1.63 2.048q.794 1.082.796 2.816c0 1.6-.583 2.957-1.74 4.077-1.163 1.125-2.551 1.682-4.167 1.682-1.62 0-3-.557-4.148-1.682-1.14-1.12-1.704-2.477-1.704-4.077q0-2.922 2.056-5.138c1.37-1.472 3.046-2.67 5.037-3.584 2-.923 3.888-1.517 5.666-1.773q6.055-.892 10.611 1.426a11 11 0 0 1 3.797 2.962q1.591 1.905 1.592 4.68zm-11.463 2.249V45.254q-1.522.68-3.37 1.846c-1.236.768-2.31 1.82-3.222 3.145-.917 1.317-1.445 3.026-1.593 5.12q-.153 2.689.445 4.754c.407 1.38 1.018 2.486 1.833 3.328.852.905 1.842 1.458 2.981 1.663 1.148.197 2.12-.004 2.926-.603" fill="#222"/><path d="M94.398 16.804v46.953q-.001 1.339.908 2.396.904 1.041 2.204 1.261v.457H79.898v-.457q1.294-.22 2.204-1.261.905-1.057.907-2.396V21.43c0-.887-.305-1.682-.907-2.377-.606-.704-1.343-1.134-2.204-1.28v-.457L92.88 15.45h.222c.861 0 1.296.452 1.296 1.353" fill="#222"/><path d="M125.116 62.258c0 .905.301 1.7.907 2.395.602.695 1.338 1.125 2.204 1.28v.439l-13.056 1.865h-.148c-.361 0-.68-.137-.963-.402q-.408-.42-.407-.933V65.02c-.903.658-2.125 1.362-3.667 2.103q-2.319 1.116-5.5 1.115-3.575 0-6.463-1.865-2.872-1.864-3.703-5.01-.911-3.217.685-6.29 1.592-3.07 4.704-4.955 1.958-1.185 4.999-2.267a208 208 0 0 1 6.371-2.176 118 118 0 0 0 6.259-2.249c1.949-.777 3.542-1.627 4.778-2.541 1.231-.923 1.852-1.966 1.852-3.127 0-.996-.445-1.993-1.334-2.98a10.4 10.4 0 0 0-3.129-2.413c-1.472-.695-3.093-1.161-4.871-1.408-1.768-.256-3.583-.229-5.444.073q-4.333.604-4.333 2.834c0 .905.277 1.682.833 2.34.556.65 1.097 1.33 1.63 2.048.527.722.796 1.66.796 2.816 0 1.6-.583 2.957-1.741 4.077-1.162 1.125-2.551 1.682-4.167 1.682-1.62 0-3-.557-4.148-1.682-1.139-1.12-1.703-2.477-1.703-4.077q0-2.922 2.055-5.138c1.37-1.472 3.046-2.67 5.037-3.584 2-.923 3.889-1.517 5.667-1.773q6.056-.892 10.611 1.426a11 11 0 0 1 3.796 2.962q1.592 1.905 1.593 4.68zm-11.463 2.249V45.254q-1.522.68-3.37 1.846c-1.237.768-2.311 1.82-3.223 3.145q-1.372 1.977-1.592 5.12-.153 2.689.444 4.754c.408 1.38 1.019 2.486 1.834 3.328q1.275 1.356 2.981 1.663c1.148.197 2.12-.004 2.926-.603" fill="#222"/><path d="M178.278 63.757q-.001 1.339.907 2.396.925 1.041 2.204 1.261v.457h-17.592v-.457q1.293-.22 2.203-1.261c.602-.704.908-1.504.908-2.396V41.652c0-1.29.324-2.309.981-3.053a48 48 0 0 1 1.963-2.14q1-1.02 1-2.358-.001-1.276-1.481-1.957-1.485-.674-3.686-.676-3.262 0-5.796 1.097-2.541 1.082-3.222 1.609 1.667 2.323 1.667 6.436v23.147q-.001 1.339.907 2.396.904 1.041 2.204 1.261v.457h-17.593v-.457q1.277-.22 2.185-1.261.925-1.057.926-2.396V41.652c0-1.29.324-2.309.982-3.053a47 47 0 0 1 1.963-2.14q1-1.02 1-2.358 0-1.276-1.445-1.957-1.444-.674-3.722-.676-3.485 0-7.352 1.737v30.552q-.001 1.339.908 2.396c.601.694 1.338 1.115 2.203 1.261v.457h-17.611v-.457q1.293-.22 2.204-1.261.905-1.057.907-2.396V37.1c0-.95-.305-1.76-.907-2.432q-.912-1.022-2.204-1.243v-.457l12.982-1.865h.222c.861 0 1.296.42 1.296 1.262v.31q1.96-.965 4.463-1.609a23.5 23.5 0 0 1 5.093-.713q2.57-.068 4.815.713c1.49.526 2.722 1.436 3.685 2.725a19.6 19.6 0 0 1 5.907-2.615c2.12-.548 4.019-.823 5.685-.823q2.737.001 5.056.97 2.311.973 3.741 3.18 1.444 2.214 1.444 6.108z" fill="#222"/><path d="M209.002 62.258c0 .905.301 1.7.908 2.395.601.695 1.337 1.125 2.203 1.28v.439l-13.055 1.865h-.148c-.362 0-.681-.137-.963-.402q-.41-.42-.408-.933V65.02c-.903.658-2.125 1.362-3.667 2.103q-2.319 1.116-5.5 1.115-3.575 0-6.462-1.865-2.873-1.864-3.704-5.01-.911-3.217.685-6.29 1.591-3.07 4.704-4.955 1.958-1.185 5-2.267a207 207 0 0 1 6.37-2.176 118 118 0 0 0 6.259-2.249c1.949-.777 3.542-1.627 4.778-2.541q1.85-1.385 1.852-3.127c0-.996-.444-1.993-1.333-2.98q-1.319-1.494-3.13-2.413c-1.472-.695-3.093-1.161-4.87-1.408-1.769-.256-3.584-.229-5.445.073q-4.333.604-4.333 2.834c0 .905.278 1.682.833 2.34.556.65 1.097 1.33 1.63 2.048q.794 1.082.796 2.816-.002 2.399-1.741 4.077c-1.162 1.125-2.551 1.682-4.166 1.682-1.621 0-3-.557-4.148-1.682-1.139-1.12-1.704-2.477-1.704-4.077q0-2.922 2.055-5.138c1.371-1.472 3.047-2.67 5.037-3.584 2-.923 3.889-1.517 5.667-1.773q6.056-.892 10.611 1.426a11 11 0 0 1 3.797 2.962q1.591 1.905 1.592 4.68zm-11.463 2.249V45.254q-1.522.68-3.37 1.846c-1.236.768-2.31 1.82-3.222 3.145-.917 1.317-1.445 3.026-1.593 5.12q-.153 2.689.444 4.754c.408 1.38 1.019 2.486 1.834 3.328.852.905 1.842 1.458 2.981 1.663q1.72.295 2.926-.603" fill="#222"/><path d="M242.22 63.758q-.001 1.336.907 2.395.904 1.041 2.204 1.261v.457h-17.593v-.457q1.277-.22 2.186-1.261.924-1.057.925-2.396V41.653q-.002-1.934.982-3.053a48 48 0 0 1 1.963-2.14q1-1.02 1-2.358 0-1.276-1.445-1.957-1.443-.674-3.722-.676-2.5.001-4.481.64-1.966.645-2.871 1.097v30.553q-.001 1.336.908 2.395.904 1.041 2.204 1.261v.457h-17.612v-.457q1.294-.22 2.204-1.261c.602-.704.908-1.504.908-2.396V37.1c0-.95-.306-1.76-.908-2.431q-.91-1.024-2.204-1.244v-.457l12.982-1.865h.222c.861 0 1.296.42 1.296 1.262v.31c1.408-.694 2.982-1.252 4.723-1.682q2.625-.639 5.277-.64c1.778 0 3.426.339 4.945 1.006q2.276 1.009 3.629 3.218 1.37 2.215 1.371 6.034z" fill="#222"/><path d="M276.052 62.258c0 .905.301 1.7.907 2.395.602.695 1.338 1.125 2.204 1.28v.439l-12.981 1.865h-.223c-.361 0-.666-.137-.926-.402a1.36 1.36 0 0 1-.37-.933v-1.81a15.6 15.6 0 0 1-4.593 2.523 11.36 11.36 0 0 1-5.111.549c-2.532-.247-4.796-1.198-6.796-2.87-1.991-1.683-3.556-3.831-4.704-6.455-1.139-2.62-1.703-5.476-1.703-8.575 0-2.935.467-5.632 1.407-8.082q1.404-3.674 3.759-6.326c1.565-1.764 3.306-3.127 5.223-4.078q2.887-1.425 5.851-1.426c1.306 0 2.556.165 3.741.494q1.793.478 2.926 1.079V21.43c0-.887-.306-1.682-.907-2.377-.607-.704-1.343-1.134-2.204-1.28v-.457l12.981-1.865h.223c.861 0 1.296.452 1.296 1.353zm-13.889 2.834c.764 0 1.597-.192 2.5-.585V32.455q-1.354-.603-2.5-.603-2.5 0-4.556 2.249c-1.361 1.499-2.458 3.501-3.296 5.997-.829 2.486-1.241 5.28-1.241 8.374q-.001 4.572 1.241 8.356 1.256 3.785 3.296 6.033 2.056 2.233 4.556 2.231" fill="#222"/><path d="M299.324 63.081q2.202 0 4.203-1.042 2.015-1.058 3.612-2.926l.388.22q-2.278 4.045-6.148 6.472-3.874 2.433-8.5 2.432c-3.185 0-6.083-.846-8.685-2.541q-3.91-2.539-6.259-6.839-2.353-4.31-2.352-9.562-.002-5.245 2.352-9.545 2.349-4.312 6.259-6.856c2.602-1.691 5.5-2.542 8.685-2.542q4.182.001 7.482 1.957 3.292 1.94 5.537 5.266c1.491 2.221 2.518 4.753 3.074 7.606h-22q0 4.937 1.667 9.032 1.665 4.08 4.463 6.473c1.875 1.6 3.949 2.395 6.222 2.395m-6.445-32.29c-1.065 0-1.935.393-2.611 1.17q-1.022 1.154-1.704 2.999a19.6 19.6 0 0 0-1 3.785 56 56 0 0 0-.444 3.584c-.102 1.097-.148 1.896-.148 2.395h11.685q-.687-13.933-5.778-13.933" fill="#222"/><path d="M328.835 29.603q2.424.074 4.167 1.718 1.758 1.647 1.759 4.041-.001 2.399-1.759 4.132-1.743 1.721-4.167 1.72-2.355.001-4.093-1.72-1.741-1.733-1.74-4.132 0-.746.111-1.115a3 3 0 0 0 .111-.823q0-1.132-1.222-1.134-1.057.002-2.871.915v30.552q-.001 1.339.908 2.396.904 1.041 2.203 1.261v.457h-17.611v-.457q1.293-.22 2.204-1.261c.602-.704.907-1.504.907-2.396V37.1c0-.95-.305-1.76-.907-2.432q-.91-1.022-2.204-1.243v-.457l12.982-1.865h.222q.61 0 .944.384.35.37.352.878v.384q2.036-1.042 4.76-2.158 2.736-1.131 4.944-.987M302.007 73.86c-.014-.374-.158-.676-.426-.895q-.41-.33-1.074-.33-.689 0-1.056.275c-.236.183-.352.448-.352.786 0 .183.046.343.148.476q.166.185.574.274l1.76.402q.702.148 1.037.585c.222.284.333.622.333 1.024q0 .898-.667 1.372c-.435.301-1.009.457-1.722.457q-.798-.001-1.278-.201a2.45 2.45 0 0 1-.833-.659q-.353-.453-.352-1.243h.778q0 .658.444 1.042c.306.247.723.366 1.241.366.505 0 .894-.082 1.167-.256a.87.87 0 0 0 .426-.768q-.001-.44-.26-.658-.241-.22-.963-.384l-1.314-.311q-.667-.143-1-.512c-.213-.242-.315-.54-.315-.896q0-.822.555-1.335.556-.529 1.556-.53c.741 0 1.315.156 1.722.457.408.306.621.796.648 1.463zm2.633 4.261h-.833v-6.015h.833zm5.164-6.015h.796v6.015h-.907l-3.111-4.864h-.019v4.864h-.796v-6.015h.963l3.056 4.863h.018zm6.182 1.81q-.131-.617-.574-.933-.43-.33-1.13-.329-.908 0-1.463.658c-.361.43-.537 1.006-.537 1.737 0 .841.171 1.472.519 1.884q.513.623 1.5.621c.43 0 .8-.137 1.111-.42q.477-.418.629-1.225h.815c-.111.768-.417 1.362-.907 1.773q-.724.604-1.76.604-1.262 0-2.018-.841-.742-.857-.741-2.377 0-1.441.778-2.286.794-.839 2.074-.841 1.056 0 1.722.549.667.534.778 1.426zm6.17 4.205h-4.5v-6.015h4.445v.713h-3.611v1.846h3.333v.713h-3.333v2.03h3.666zm2.319-3.785c0-.695.176-1.216.537-1.572.371-.366.88-.549 1.537-.549q.813 0 1.334.494c.356.329.537.759.537 1.28q-.002.604-.315 1.024-.3.404-.87.731l-1.037.549q-.911.494-1.038 1.133h3.26v.695h-4.093q.036-.823.371-1.371c.222-.375.564-.7 1.037-.97l1.055-.621q.443-.233.63-.494.202-.254.203-.713a.96.96 0 0 0-.333-.75q-.318-.309-.852-.31c-.407 0-.713.128-.907.384q-.297.386-.296 1.06zm7.735.914q-.002-1.184-.315-1.773c-.213-.389-.519-.585-.926-.585q-.611 0-.945.585c-.213.393-.314.983-.314 1.773 0 .768.101 1.353.314 1.756q.334.603.945.603c.407 0 .713-.192.926-.585q.313-.582.315-1.774m.796 0q-.002 1.448-.537 2.25-.52.786-1.5.785-1.042 0-1.556-.822-.5-.822-.5-2.213c0-.95.172-1.69.519-2.23q.535-.804 1.537-.805.98.001 1.5.805.535.789.537 2.23m.456-.914c0-.695.176-1.216.537-1.572.371-.366.88-.549 1.537-.549q.813 0 1.334.494c.356.329.537.759.537 1.28q-.002.604-.315 1.024-.3.404-.87.731l-1.037.549q-.911.494-1.037 1.133h3.259v.695h-4.093q.036-.823.371-1.371c.222-.375.564-.7 1.037-.97l1.055-.621q.443-.233.63-.494.203-.254.204-.713a.96.96 0 0 0-.334-.75q-.318-.309-.852-.31c-.407 0-.713.128-.907.384q-.297.386-.296 1.06zm5.364.348a1.93 1.93 0 0 1 1.167-.366q.793.001 1.37.53c.394.357.593.805.593 1.353q0 .918-.556 1.5c-.37.393-.898.585-1.574.585q-.875-.001-1.389-.42-.502-.42-.574-1.208h.76q.069.48.388.732.313.258.889.256.555.001.908-.366c.231-.256.352-.585.352-.987q-.001-.582-.371-.951-.374-.365-.963-.366c-.444 0-.815.192-1.111.567l-.629-.037.444-3.144h3.093v.713h-2.537zM40.645 27.87h-1.278v-4.956h-1.833v-1.06h4.963v1.06h-1.852zm6.849-4.955h-3.24v1.261h2.981v1.06h-2.981v1.573h3.389v1.06h-4.63v-6.015h4.481zm4.819.895q-.241-1.042-1.352-1.042c-.458 0-.828.192-1.11.567-.274.366-.408.887-.408 1.554q0 .919.389 1.481c.268.38.648.567 1.13.567.726 0 1.175-.375 1.351-1.134h1.278a2.68 2.68 0 0 1-.815 1.591c-.458.43-1.07.64-1.833.64q-1.279 0-2.037-.823c-.51-.557-.76-1.34-.76-2.34q-.001-1.426.742-2.304.755-.878 2.074-.878 1.124 0 1.833.604.7.605.796 1.517zm6.931-1.956v6.015h-1.278v-2.706h-2.389v2.706h-1.26v-6.015h1.26v2.267h2.389v-2.267zm7.992 0v6.015h-1.278v-2.706h-2.39v2.706H62.31v-6.015h1.259v2.267h2.389v-2.267zm5.904 3.913c0 .745-.214 1.312-.63 1.7q-.613.569-1.87.567-1.112 0-1.779-.549c-.435-.374-.648-.932-.648-1.663v-3.968h1.315v3.895q-.001.604.296.914c.195.196.482.292.852.292q.554 0 .852-.274.314-.288.315-.878v-3.949h1.296zm2.223-1.573h1.482q.444 0 .666-.164a.59.59 0 0 0 .241-.494q0-.33-.222-.494c-.14-.11-.37-.164-.704-.164h-1.463zm0 2.633h1.556q.458.002.722-.2.258-.22.26-.677a.65.65 0 0 0-.26-.53q-.243-.2-.667-.202h-1.61zm-1.222-4.973h2.963q.903 0 1.389.439.48.425.481 1.097c0 .612-.25 1.02-.74 1.225.63.247.944.731.944 1.463 0 .247-.051.475-.148.694q-.133.316-.426.604-.3.274-.704.384-.408.11-1.185.11H74.14z" fill="#222"/></svg>